<?xml version="1.0" encoding="UTF-8" standalone="no"?>
<!DOCTYPE svg PUBLIC "-//W3C//DTD SVG 20010904//EN" "http://www.w3.org/TR/2001/REC-SVG-20010904/DTD/svg10.dtd">
<svg version="1.0" xmlns="http://www.w3.org/2000/svg" width="1300.000000pt" height="1300.000000pt" viewBox="0 0 1300.000000 1300.000000" preserveAspectRatio="xMidYMid meet">

<g transform="translate(0.000000,1300.000000) scale(0.100000,-0.100000)" fill="#000000" stroke="none">
<path d="M6155 12164 c-5 -2 -77 -8 -159 -13 -82 -5 -152 -14 -155 -19 -3 -5 -42 -12 -86 -15 -141 -12 -240 -26 -243 -37 -2 -5 -17 -10 -34 -10 -42 0 -212 -32 -218 -40 -5 -7 -65 -19 -102 -20 -9 0 -23 -6 -30 -13 -7 -7 -41 -18 -75 -24 -34 -6 -77 -18 -95 -27 -18 -8 -49 -18 -68 -21 -19 -4 -39 -10 -45 -13 -5 -4 -16 -7 -24 -9 -8 -1 -17 -5 -20 -10 -3 -5 -31 -15 -61 -22 -30 -8 -60 -20 -68 -27 -7 -8 -25 -15 -40 -16 -46 -2 -50 -3 -58 -11 -4 -4 -16 -7 -26 -7 -10 0 -18 -4 -18 -10 0 -5 -19 -14 -42 -21 -24 -6 -57 -19 -74 -30 -17 -10 -38 -19 -46 -19 -8 0 -41 -13 -73 -30 -32 -16 -65 -30 -72 -30 -7 0 -13 -4 -13 -10 0 -5 -18 -14 -40 -20 -21 -6 -46 -17 -53 -25 -8 -8 -34 -20 -57 -27 -23 -7 -45 -19 -47 -25 -3 -7 -13 -13 -22 -13 -10 0 -26 -8 -37 -19 -11 -10 -31 -22 -45 -25 -36 -11 -72 -29 -93 -48 -10 -10 -22 -15 -26 -13 -4 2 -16 -4 -28 -15 -11 -11 -32 -22 -45 -25 -14 -4 -33 -15 -43 -26 -9 -10 -20 -19 -24 -19 -10 0 -122 -68 -129 -78 -3 -4 -23 -16 -43 -25 -21 -10 -38 -22 -38 -27 0 -5 -11 -12 -25 -16 -14 -3 -29 -12 -33 -18 -4 -7 -24 -20 -44 -30 -21 -9 -38 -20 -38 -24 0 -4 -17 -16 -37 -27 -21 -11 -44 -28 -51 -37 -7 -10 -17 -18 -23 -18 -5 0 -18 -8 -29 -17 -11 -10 -29 -26 -40 -35 -11 -10 -23 -18 -26 -18 -4 0 -28 -17 -53 -37 -25 -21 -48 -38 -51 -39 -5 0 -60 -47 -107 -91 -13 -13 -28 -23 -33 -23 -5 0 -17 -11 -28 -25 -11 -14 -25 -25 -31 -25 -6 0 -11 -4 -11 -10 0 -5 -8 -10 -17 -10 -15 0 -16 -2 -3 -10 13 -9 13 -10 0 -10 -20 0 -72 -44 -188 -160 -53 -52 -99 -94 -103 -93 -4 2 -11 -7 -14 -18 -4 -11 -18 -24 -32 -30 -13 -5 -167 -9 -343 -9 -281 0 -319 -2 -324 -16 -3 -9 -6 -193 -6 -409 0 -381 -4 -433 -31 -455 -3 -3 -14 -20 -23 -37 -9 -18 -21 -33 -25 -33 -5 0 -12 -13 -16 -30 -4 -16 -15 -36 -24 -42 -10 -7 -24 -30 -32 -50 -7 -21 -16 -38 -19 -38 -3 0 -14 -19 -25 -42 -10 -24 -21 -45 -25 -48 -10 -8 -40 -72 -40 -87 0 -7 -4 -13 -9 -13 -5 0 -14 -15 -22 -32 -7 -18 -16 -35 -19 -38 -3 -3 -12 -21 -20 -40 -7 -19 -19 -42 -25 -50 -7 -8 -16 -26 -20 -40 -4 -14 -24 -62 -46 -107 -21 -45 -39 -89 -39 -97 0 -8 -4 -18 -10 -21 -5 -3 -10 -15 -10 -25 0 -10 -6 -25 -13 -32 -7 -7 -21 -41 -31 -75 -11 -35 -22 -63 -26 -63 -3 0 -12 -29 -19 -65 -7 -36 -19 -71 -25 -78 -6 -7 -18 -37 -25 -67 -8 -30 -20 -64 -27 -75 -6 -11 -18 -47 -25 -80 -7 -33 -16 -62 -21 -65 -4 -4 -15 -46 -25 -95 -9 -50 -21 -93 -25 -96 -6 -4 -27 -101 -28 -127 0 -2 -4 -1 -9 2 -5 3 -11 -13 -14 -37 -14 -122 -29 -202 -38 -205 -5 -2 -9 -16 -9 -30 0 -43 -33 -266 -40 -272 -8 -6 -40 -360 -41 -450 -1 -48 -3 -58 -9 -40 -5 15 -9 -39 -11 -140 -4 -235 2 -564 11 -570 4 -3 7 -21 8 -40 1 -87 37 -440 44 -440 4 0 8 -10 8 -22 -1 -34 31 -230 41 -253 9 -23 39 -174 39 -199 0 -10 6 -24 14 -31 7 -8 16 -36 20 -64 4 -28 11 -51 15 -51 5 0 11 -15 14 -32 14 -83 30 -143 39 -149 6 -4 10 -19 10 -33 0 -15 4 -29 9 -32 5 -3 9 -21 9 -40 0 -24 5 -34 15 -34 9 0 15 -9 15 -22 0 -27 22 -88 31 -88 4 0 10 -18 14 -40 4 -22 11 -42 16 -46 5 -3 9 -16 9 -30 0 -13 4 -24 8 -24 5 0 17 -28 27 -62 10 -35 24 -67 32 -71 7 -4 13 -17 13 -27 0 -10 5 -22 10 -25 6 -3 10 -15 10 -26 0 -11 7 -27 15 -35 8 -9 18 -27 22 -42 3 -15 9 -29 12 -32 12 -10 31 -50 31 -64 0 -8 6 -21 12 -28 15 -15 34 -53 43 -86 4 -12 10 -20 14 -18 4 3 13 -15 20 -40 7 -24 17 -44 21 -44 4 0 15 -19 26 -42 10 -24 21 -45 25 -48 3 -3 14 -23 25 -45 10 -22 21 -42 24 -45 7 -6 85 -135 115 -189 11 -20 27 -41 35 -48 13 -10 16 -163 20 -1235 l5 -1223 1675 -2 c921 -1 1690 -5 1708 -8 18 -3 30 -10 27 -14 -2 -5 14 -11 38 -14 104 -15 132 -21 138 -29 6 -9 60 -18 196 -35 29 -3 50 -9 48 -14 -3 -4 21 -10 52 -14 32 -3 85 -10 119 -15 33 -6 77 -10 96 -10 20 0 38 -4 40 -9 2 -5 75 -14 163 -21 88 -6 170 -16 183 -22 18 -9 28 -9 42 0 11 7 20 7 22 2 2 -6 135 -10 343 -9 187 0 350 0 363 0 13 -1 31 3 41 8 9 5 88 15 176 21 88 6 162 15 165 19 3 5 30 11 60 14 145 16 235 30 240 37 5 8 17 10 149 29 41 6 77 15 80 19 3 5 24 12 46 16 95 15 111 19 126 32 13 12 282 14 1665 16 l1649 3 3 1193 c1 718 6 1191 11 1187 5 -3 12 7 16 23 3 15 17 41 30 56 14 16 30 44 37 62 7 19 15 34 19 34 4 0 12 13 19 29 6 16 20 37 31 47 10 9 19 26 19 36 0 10 7 21 15 24 8 4 15 14 16 23 0 9 9 30 19 46 32 51 50 87 50 100 0 7 7 15 15 19 8 3 15 14 15 25 0 11 5 23 10 26 6 3 10 13 10 21 0 9 6 21 13 28 7 8 19 33 27 57 8 24 20 50 27 57 7 7 13 22 13 32 0 10 5 22 10 25 6 3 10 15 10 26 0 10 4 19 10 19 5 0 15 19 22 43 7 23 19 50 28 60 8 10 15 21 15 25 2 29 17 82 24 82 4 0 16 29 26 65 9 36 20 65 24 65 8 0 31 73 31 100 0 11 4 20 9 20 4 0 16 35 26 78 10 42 22 79 26 82 4 3 13 34 20 70 7 36 18 70 24 75 7 6 15 28 18 50 18 109 27 149 35 154 9 6 18 51 29 146 3 28 10 53 16 57 11 6 21 60 33 178 4 36 11 68 16 71 9 6 26 115 35 234 3 44 10 85 15 92 5 6 14 106 20 222 7 115 16 207 20 205 10 -6 5 507 -5 551 -4 17 -11 104 -16 194 -6 90 -14 167 -19 170 -5 3 -12 40 -15 81 -11 133 -26 235 -37 238 -5 2 -10 19 -10 37 0 19 -4 56 -9 82 -6 26 -13 70 -16 97 -5 35 -9 45 -16 35 -6 -10 -9 -5 -9 18 0 40 -20 136 -30 143 -4 3 -15 44 -25 93 -10 48 -22 87 -26 87 -5 0 -11 17 -14 38 -3 20 -10 45 -16 54 -5 10 -9 29 -9 43 0 14 -4 25 -8 25 -5 0 -14 24 -21 53 -20 83 -22 88 -32 82 -5 -4 -9 4 -9 17 0 29 -21 78 -34 78 -5 0 -3 6 3 14 9 10 8 15 -3 19 -7 3 -20 28 -27 56 -7 28 -16 51 -20 51 -4 0 -15 25 -24 55 -10 30 -21 55 -26 55 -4 0 -11 15 -14 33 -4 17 -13 39 -20 47 -7 8 -20 36 -30 63 -10 26 -22 47 -26 47 -5 0 -9 5 -9 11 0 18 -80 179 -89 179 -5 0 -11 13 -14 29 -3 16 -12 35 -19 42 -7 8 -22 33 -32 57 -11 23 -22 42 -26 42 -4 0 -15 20 -26 45 -10 25 -21 45 -25 45 -4 0 -12 14 -18 30 -5 17 -14 30 -19 30 -6 0 -13 11 -16 25 -3 13 -17 36 -31 51 -14 15 -25 32 -25 38 0 6 -9 22 -20 36 -19 24 -20 44 -20 447 l0 422 -329 3 -329 3 -132 132 c-73 73 -136 130 -141 127 -5 -3 -9 2 -9 10 0 8 -9 20 -21 26 -11 7 -38 28 -59 48 -21 20 -62 57 -91 82 -28 25 -60 53 -70 63 -11 9 -21 17 -24 17 -2 0 -18 14 -35 30 -17 17 -34 30 -38 30 -5 0 -17 8 -28 18 -10 9 -32 25 -47 35 -27 18 -36 25 -95 74 -15 13 -30 23 -34 23 -4 0 -13 6 -20 13 -7 7 -26 21 -43 31 -32 21 -47 32 -75 58 -11 10 -30 20 -43 23 -13 4 -36 17 -51 30 -16 13 -43 29 -62 35 -19 7 -34 15 -34 19 0 11 -56 41 -64 34 -3 -3 -6 -1 -6 6 0 7 -18 20 -40 30 -22 10 -38 20 -35 22 2 3 -18 13 -45 23 -28 10 -50 21 -50 25 0 4 -20 15 -45 25 -25 11 -45 22 -45 26 0 4 -18 13 -40 20 -22 7 -45 19 -51 27 -6 7 -20 13 -30 13 -10 0 -21 5 -24 10 -3 6 -15 10 -26 10 -10 0 -19 4 -19 8 0 5 -26 17 -57 28 -32 10 -62 25 -66 31 -4 7 -16 13 -27 13 -10 0 -25 6 -32 13 -7 7 -40 21 -73 32 -33 10 -62 21 -65 25 -6 8 -107 40 -126 40 -8 0 -14 4 -14 8 0 4 -28 16 -62 26 -35 10 -67 22 -73 26 -5 4 -37 14 -70 21 -33 7 -66 19 -73 26 -7 7 -29 13 -47 13 -19 0 -36 4 -39 8 -2 4 -19 9 -37 10 -18 2 -36 7 -39 12 -3 6 -44 18 -91 27 -46 9 -86 20 -89 24 -3 4 -41 13 -85 20 -44 7 -82 16 -85 21 -3 4 -62 14 -130 24 -69 9 -134 21 -145 27 -20 10 -108 23 -242 33 -45 4 -80 11 -77 15 3 5 -5 9 -18 9 -13 1 -90 7 -173 15 -135 12 -861 20 -890 9z m749 -254 c97 -6 165 -15 175 -23 12 -9 13 -9 7 1 -4 7 -1 12 9 12 9 0 14 -4 11 -8 -2 -4 57 -14 132 -21 75 -7 139 -16 142 -21 3 -4 32 -10 65 -14 110 -10 220 -28 225 -35 4 -7 63 -18 188 -36 23 -4 40 -10 38 -14 -3 -4 40 -15 95 -25 54 -10 99 -21 99 -25 0 -4 33 -14 73 -21 39 -7 75 -17 78 -22 6 -9 34 -17 121 -35 15 -3 26 -9 23 -13 -3 -4 12 -11 33 -15 56 -10 112 -29 112 -37 0 -4 18 -11 41 -14 22 -4 43 -13 46 -20 3 -8 13 -14 22 -14 21 0 114 -30 121 -40 3 -3 25 -12 49 -20 24 -8 49 -19 55 -25 6 -6 31 -17 55 -25 24 -8 49 -19 55 -26 6 -6 28 -17 49 -23 20 -7 37 -17 37 -22 0 -5 3 -8 8 -7 13 2 102 -35 102 -43 0 -3 20 -14 45 -23 25 -10 45 -21 45 -26 0 -4 11 -11 25 -14 13 -3 34 -16 45 -28 11 -12 20 -18 20 -14 0 6 58 -21 70 -34 3 -3 23 -14 45 -25 22 -11 44 -26 48 -32 4 -7 15 -13 23 -13 8 0 17 -6 20 -14 3 -7 25 -22 50 -32 24 -10 44 -22 44 -26 0 -4 16 -14 35 -22 19 -8 35 -19 35 -24 0 -4 16 -16 35 -25 19 -9 35 -21 35 -26 0 -5 14 -14 30 -21 17 -7 30 -16 30 -21 0 -5 15 -16 33 -25 17 -9 38 -25 45 -35 7 -11 18 -19 24 -19 6 0 21 -10 33 -22 43 -44 85 -78 96 -78 5 0 7 -4 4 -10 -3 -5 1 -10 9 -10 8 0 23 -11 34 -25 11 -14 24 -25 29 -25 5 0 20 -12 34 -27 39 -42 88 -83 99 -83 5 0 17 -13 26 -29 10 -17 21 -28 25 -25 7 4 29 -26 29 -40 0 -3 -1705 -6 -3790 -6 -2084 0 -3790 4 -3790 8 0 4 12 16 27 27 15 11 41 34 59 50 110 100 197 175 207 175 8 0 25 14 85 71 23 21 56 46 74 55 18 9 39 25 46 35 7 11 18 19 24 19 5 0 24 11 42 25 17 14 36 29 41 33 6 4 26 17 45 28 19 10 41 27 48 37 7 9 17 15 22 12 5 -3 18 3 29 14 11 11 35 28 53 37 18 9 37 23 41 30 4 8 14 14 22 14 8 0 18 6 22 13 4 7 27 21 51 31 23 11 42 22 42 26 0 4 18 15 40 25 22 10 45 24 51 32 6 7 20 13 31 13 10 0 21 7 24 15 4 8 12 15 18 15 21 0 87 36 80 43 -4 4 2 7 14 7 11 0 24 5 27 10 3 6 15 10 26 10 11 0 22 6 25 14 3 7 24 19 47 26 23 7 47 19 52 26 6 6 30 18 53 25 23 6 42 16 42 20 0 4 26 16 58 26 31 9 61 23 65 30 4 7 16 13 26 13 9 0 41 11 69 25 29 14 61 25 72 25 11 0 23 7 26 15 4 8 17 15 29 15 13 0 27 5 30 10 3 6 20 10 36 10 17 0 32 6 35 15 4 8 13 15 21 15 20 0 117 32 123 40 3 4 19 10 35 13 94 17 111 21 116 30 6 8 37 17 129 34 19 3 38 10 41 15 6 9 76 24 162 35 26 3 47 9 47 14 0 8 8 10 150 30 47 7 87 15 90 20 3 4 68 13 145 20 77 6 142 16 145 20 15 23 686 36 954 19z m-4707 -1745 c-15 -14 -27 -29 -27 -33 0 -4 -19 -28 -42 -54 -24 -25 -54 -60 -68 -78 -14 -19 -36 -45 -49 -58 -13 -14 -29 -39 -37 -56 -12 -28 -13 -13 -14 137 l0 167 132 0 133 0 -28 -25z m3978 8 c-32 -17 -64 -52 -65 -69 0 -6 -14 -14 -31 -18 -41 -8 -109 -62 -109 -87 0 -10 -4 -19 -10 -19 -5 0 -10 -8 -10 -18 0 -23 -19 -42 -42 -42 -10 0 -18 -5 -18 -10 0 -6 -11 -16 -25 -22 -14 -6 -25 -15 -25 -21 0 -5 -9 -20 -20 -34 -11 -14 -20 -36 -20 -49 0 -13 -9 -28 -20 -34 -47 -25 -58 -103 -34 -235 4 -22 0 -36 -15 -52 -22 -23 -28 -53 -11 -53 6 0 10 -25 10 -56 0 -65 17 -143 36 -164 8 -8 32 -35 54 -59 40 -42 80 -109 80 -131 0 -6 7 -18 15 -26 8 -9 15 -31 15 -49 l0 -34 -39 17 c-22 9 -37 20 -35 23 2 4 -18 12 -44 19 -26 7 -52 17 -58 22 -19 14 -106 30 -196 35 -49 3 -88 9 -88 14 0 5 -45 9 -100 9 -60 0 -100 -4 -100 -10 0 -5 -20 -10 -45 -10 -25 0 -45 4 -45 9 0 5 -8 11 -17 15 -22 7 -50 25 -77 49 -11 9 -26 17 -33 17 -7 0 -13 5 -13 10 0 6 -9 10 -19 10 -11 0 -22 4 -25 9 -3 5 -26 12 -51 15 -25 4 -45 11 -45 15 0 5 -26 11 -57 14 -32 3 -114 10 -181 17 l-124 12 -42 44 c-24 24 -48 44 -54 44 -7 0 -12 4 -12 10 0 5 -19 18 -42 29 -24 11 -36 21 -28 21 8 0 -5 10 -30 22 -25 11 -47 24 -50 27 -3 4 -21 13 -40 21 -19 8 -37 16 -40 20 -7 8 -113 40 -133 40 -10 0 -17 3 -17 8 0 4 -39 16 -87 26 -49 11 -90 22 -93 26 -7 9 -172 40 -214 40 -20 0 -36 4 -36 9 0 5 -18 12 -40 16 -22 4 -47 13 -54 21 -8 8 -20 14 -26 14 -23 0 -110 33 -110 41 0 5 -11 9 -24 9 -14 0 -28 5 -31 10 -3 6 -16 10 -29 10 -13 0 -33 9 -46 20 -12 11 -32 22 -44 26 -21 7 -42 27 -106 104 -80 95 -149 158 -213 193 -37 21 -79 49 -93 63 -15 13 -33 24 -40 24 -8 0 -14 4 -14 9 0 5 -19 16 -42 24 -39 14 139 15 1727 16 1627 0 1768 -1 1740 -16z m4425 8 c0 -11 -25 -21 -51 -21 -11 0 -27 -4 -37 -9 -9 -4 -35 -17 -57 -27 -22 -10 -44 -24 -48 -31 -4 -7 -15 -13 -22 -13 -8 0 -15 -4 -15 -10 0 -11 -72 -50 -94 -50 -7 0 -16 -7 -20 -15 -3 -8 -14 -15 -24 -15 -23 0 -102 -60 -102 -77 0 -6 -8 -18 -18 -25 -9 -7 -29 -32 -44 -54 -23 -36 -33 -42 -72 -48 -25 -4 -46 -11 -46 -15 0 -5 -21 -14 -47 -21 -27 -7 -53 -17 -58 -21 -11 -8 -73 -25 -127 -36 -16 -3 -28 -9 -28 -13 0 -4 -32 -15 -70 -24 -39 -10 -82 -24 -97 -31 -14 -8 -43 -17 -65 -20 -21 -4 -38 -11 -38 -16 0 -5 -13 -9 -29 -9 -16 0 -40 -4 -53 -9 -13 -5 -43 -11 -67 -15 -25 -3 -47 -10 -50 -14 -3 -5 -23 -12 -43 -15 -21 -3 -50 -12 -65 -21 -16 -8 -49 -25 -75 -37 -27 -13 -48 -27 -48 -31 0 -5 -13 -14 -30 -19 -16 -6 -28 -14 -26 -18 3 -4 -11 -13 -31 -20 -19 -7 -54 -26 -77 -41 -22 -16 -44 -26 -48 -23 -5 2 -11 -3 -14 -11 -3 -9 -11 -16 -18 -16 -6 0 -36 -16 -66 -35 -30 -19 -60 -35 -68 -35 -7 0 -20 -7 -28 -15 -9 -8 -24 -15 -34 -15 -10 0 -22 -4 -25 -10 -3 -5 -17 -10 -31 -10 -13 0 -24 -4 -24 -9 0 -5 -12 -12 -27 -15 -66 -15 -113 -31 -113 -38 0 -4 -27 -12 -60 -19 -33 -6 -58 -15 -55 -19 4 -6 -44 -20 -122 -35 -18 -4 -33 -11 -33 -16 0 -12 -123 -12 -136 1 -16 16 -340 17 -330 1 3 -5 -9 -11 -27 -14 -41 -6 -135 -35 -122 -37 6 0 -10 -8 -35 -17 -25 -8 -47 -19 -50 -23 -3 -4 -23 -15 -45 -26 -22 -10 -42 -21 -45 -25 -3 -4 -22 -14 -42 -22 -21 -9 -38 -21 -38 -26 0 -6 -9 -11 -20 -11 -31 0 -24 27 10 39 17 5 33 17 36 26 3 8 12 15 18 15 18 0 57 48 67 84 5 17 9 61 9 98 0 68 0 68 28 68 17 0 38 10 52 25 19 21 22 31 17 72 -3 26 -8 55 -12 65 -4 11 0 18 13 22 10 4 28 24 38 46 10 22 22 40 27 40 4 0 7 11 7 25 0 14 -4 25 -10 25 -5 0 -10 6 -10 13 0 8 -9 22 -20 32 -11 10 -20 14 -20 10 0 -5 -9 1 -20 13 -12 12 -25 22 -30 22 -6 0 -10 7 -10 15 0 8 5 15 10 15 6 0 10 35 10 85 0 50 -4 85 -10 85 -5 0 -10 14 -10 31 0 38 -16 69 -35 69 -8 0 -15 4 -15 9 0 4 -20 16 -44 25 -41 16 -45 21 -51 59 -8 52 -25 97 -36 97 -5 0 -28 17 -50 39 -68 64 -90 78 -139 94 -8 3 801 6 1798 6 1057 1 1812 -3 1812 -8z m610 -156 l0 -166 -22 21 c-13 12 -23 25 -23 30 0 5 -8 17 -17 27 -10 10 -28 32 -42 48 -14 17 -39 46 -55 65 -17 19 -31 40 -31 46 0 6 -11 19 -25 28 -14 9 -25 23 -25 31 0 8 -7 15 -15 15 -8 0 -15 5 -15 10 0 6 52 10 135 10 l135 0 0 -165z m-8860 -111 c0 -4 -11 -17 -25 -30 -29 -27 -32 -66 -7 -92 9 -9 26 -29 37 -43 11 -14 24 -26 29 -26 4 0 22 -14 40 -30 17 -17 48 -35 69 -42 20 -7 37 -17 37 -22 0 -5 8 -9 17 -9 22 0 83 -22 83 -31 0 -11 53 -61 92 -85 20 -13 69 -31 110 -41 40 -9 79 -23 86 -30 7 -7 22 -13 32 -13 11 0 23 -6 27 -13 4 -6 35 -21 68 -32 33 -10 62 -22 65 -26 3 -3 26 -14 53 -24 26 -10 47 -21 47 -24 0 -4 20 -12 46 -19 25 -7 43 -16 40 -21 -3 -5 7 -11 22 -14 15 -3 36 -14 48 -25 11 -11 35 -27 52 -36 18 -9 32 -20 32 -25 0 -5 8 -11 18 -15 19 -6 50 -25 69 -43 7 -6 22 -15 33 -18 11 -3 20 -10 20 -15 0 -5 16 -14 35 -20 19 -6 41 -17 48 -24 15 -15 97 -46 120 -46 10 0 16 -4 13 -9 -3 -5 17 -14 44 -21 28 -7 50 -15 50 -19 0 -4 43 -15 95 -25 52 -10 93 -21 91 -25 -3 -4 40 -15 95 -25 54 -10 99 -21 99 -25 0 -3 28 -12 62 -18 35 -7 67 -18 73 -25 12 -16 103 -61 160 -80 22 -7 42 -15 45 -18 7 -8 109 -40 126 -40 8 0 14 -4 14 -10 0 -5 11 -10 24 -10 14 0 28 -4 31 -10 4 -6 -20 -10 -64 -10 -38 0 -73 -4 -76 -10 -3 -5 -22 -10 -42 -10 -20 0 -64 -5 -98 -11 -50 -10 -72 -9 -109 2 -25 7 -46 16 -46 20 0 4 -32 13 -70 20 -39 7 -67 15 -64 18 14 15 -247 30 -525 30 -293 1 -426 -9 -442 -32 -10 -15 -177 -29 -257 -22 -61 6 -77 11 -95 31 -11 13 -26 24 -33 24 -7 0 -17 6 -21 13 -4 7 -28 21 -53 31 -25 10 -47 22 -51 27 -7 12 -135 28 -221 29 -38 0 -68 5 -70 11 -4 13 -199 14 -207 1 -3 -5 -33 -14 -65 -21 -59 -13 -126 -54 -126 -77 0 -15 -23 -24 -60 -24 -16 0 -36 -7 -44 -16 -15 -14 -16 21 -16 381 0 335 2 401 15 425 9 17 19 30 23 30 4 0 15 18 25 40 9 22 21 40 27 40 5 0 17 17 27 38 9 20 25 43 35 50 10 7 18 17 18 23 0 5 7 17 15 27 55 64 72 88 81 112 3 9 18 24 33 34 15 10 33 32 40 47 8 18 20 29 32 29 10 0 19 -3 19 -6z m8500 -44 c0 -5 6 -10 13 -10 14 0 36 -23 64 -67 9 -15 23 -32 30 -36 7 -4 13 -12 13 -17 0 -10 56 -90 84 -120 7 -8 17 -25 21 -38 4 -13 10 -21 13 -17 4 3 16 -16 29 -42 12 -26 23 -41 23 -33 0 8 9 -4 20 -27 10 -24 23 -43 28 -43 6 0 13 -11 16 -25 7 -27 9 -776 2 -782 -2 -2 -27 -1 -55 3 -33 4 -51 11 -51 20 0 8 -3 14 -8 14 -4 0 -19 11 -32 23 -14 13 -37 27 -50 30 -14 4 -49 12 -77 19 -29 6 -53 16 -53 20 0 12 -122 8 -137 -4 -6 -5 -78 -13 -160 -18 -159 -9 -213 -17 -213 -31 0 -5 -16 -15 -35 -23 -19 -8 -35 -19 -35 -24 0 -5 -6 -9 -12 -10 -7 -1 -35 -6 -63 -11 -27 -5 -71 -10 -97 -10 -27 -1 -48 -5 -48 -11 0 -14 -64 -12 -78 2 -9 9 -12 9 -12 0 0 -15 -277 -17 -282 -2 -2 6 -42 15 -90 21 -48 7 -85 16 -82 20 9 16 -319 11 -352 -5 -16 -8 -59 -17 -96 -21 -38 -4 -68 -10 -68 -15 0 -10 -97 -21 -195 -22 -96 -1 -245 13 -245 23 0 5 -14 9 -31 9 -17 0 -28 4 -24 10 3 6 15 10 26 10 10 0 19 4 19 8 0 5 20 17 45 28 25 10 45 21 45 24 0 3 20 12 46 19 25 7 51 19 57 26 7 7 29 18 50 26 20 7 37 16 37 19 0 4 57 10 128 13 120 5 231 23 242 38 3 4 34 15 70 25 36 10 70 23 75 29 6 6 30 18 55 25 25 8 49 20 53 27 4 7 12 13 17 13 10 0 95 56 118 78 7 6 17 12 22 12 4 0 31 21 59 48 47 44 84 77 139 121 12 10 43 24 67 30 25 6 45 15 45 20 0 4 19 14 43 22 23 7 48 19 55 26 7 7 31 17 52 23 22 6 40 14 40 19 0 4 26 16 58 27 31 10 59 22 62 25 3 3 36 12 75 19 85 16 143 46 193 98 24 26 52 44 80 51 23 7 42 16 42 20 0 5 14 14 30 21 17 7 30 16 30 21 0 5 14 16 31 24 16 9 38 24 48 33 10 9 35 31 55 49 41 37 50 85 17 102 -24 14 -35 41 -16 41 8 0 15 -4 15 -10z m-9100 -3452 c-1 -1976 -3 -2638 -12 -2623 -6 11 -14 22 -18 25 -4 3 -15 26 -26 52 -10 27 -22 48 -26 48 -3 0 -12 17 -19 38 -6 20 -20 48 -30 61 -11 13 -19 32 -19 42 0 9 -6 24 -13 31 -7 7 -22 36 -32 63 -11 28 -22 52 -25 55 -4 3 -15 30 -26 60 -10 30 -24 61 -31 67 -6 7 -15 27 -18 45 -4 18 -11 35 -14 38 -4 3 -15 31 -25 63 -10 31 -21 57 -26 57 -4 0 -10 15 -13 32 -7 44 -29 122 -36 128 -10 8 -31 75 -31 97 0 12 -5 23 -11 25 -6 2 -16 26 -21 53 -18 98 -21 110 -29 115 -10 7 -39 144 -39 183 0 16 -4 26 -9 22 -5 -3 -12 21 -16 52 -4 32 -11 71 -16 87 -5 16 -9 47 -9 68 0 22 -4 37 -9 34 -5 -3 -14 46 -21 109 -7 63 -16 115 -20 115 -10 0 -13 50 -31 422 -10 226 -10 329 0 550 17 363 21 422 32 428 4 3 12 50 17 104 5 54 14 101 20 105 5 3 12 33 15 66 7 95 28 210 38 213 5 2 9 16 9 30 0 39 33 186 42 190 4 2 8 14 8 27 0 31 30 149 40 155 4 3 10 19 13 35 16 92 21 110 27 115 3 3 15 37 25 75 10 39 21 72 25 75 9 6 40 104 40 124 0 9 4 16 9 16 5 0 12 16 15 35 4 19 13 40 20 47 7 7 21 41 31 76 10 34 22 62 27 62 4 0 8 8 8 18 0 10 11 40 24 68 13 27 41 85 61 129 21 44 42 82 46 85 4 3 16 31 27 64 11 32 22 52 25 45 3 -9 6 -6 6 7 1 19 9 34 18 34 2 0 3 -1189 3 -2642z m9694 2572 c10 -27 21 -50 25 -50 8 0 31 -50 31 -67 0 -8 7 -16 15 -19 8 -4 15 -14 15 -24 0 -11 5 -22 10 -25 6 -3 10 -14 10 -25 0 -10 7 -20 15 -24 8 -3 15 -14 15 -25 0 -11 5 -23 10 -26 6 -3 10 -15 10 -26 0 -10 4 -19 10 -19 5 0 12 -16 16 -35 3 -19 10 -38 15 -41 5 -3 9 -13 9 -24 0 -10 7 -20 15 -24 8 -3 15 -16 15 -30 0 -14 6 -31 13 -38 11 -12 23 -44 42 -116 4 -12 11 -20 16 -17 5 4 9 -5 9 -19 0 -14 4 -27 9 -30 5 -4 12 -29 16 -56 4 -28 11 -50 15 -50 5 0 11 -15 15 -32 8 -39 26 -91 35 -98 4 -3 12 -34 19 -70 7 -36 17 -68 22 -71 5 -3 16 -41 24 -85 9 -43 22 -92 29 -109 7 -16 20 -68 27 -115 7 -47 16 -87 20 -90 4 -3 14 -53 21 -112 6 -59 15 -105 19 -103 8 5 16 -58 30 -250 6 -82 16 -161 23 -174 17 -36 16 -803 -1 -808 -9 -3 -13 -25 -13 -61 0 -79 -31 -386 -40 -392 -4 -3 -12 -48 -19 -100 -7 -52 -16 -99 -20 -105 -4 -5 -16 -59 -26 -120 -9 -60 -21 -112 -25 -115 -5 -3 -13 -41 -19 -85 -6 -43 -17 -88 -24 -100 -8 -11 -19 -54 -26 -94 -8 -41 -20 -81 -27 -89 -8 -7 -14 -23 -14 -34 0 -25 -21 -101 -30 -108 -4 -3 -15 -39 -26 -80 -10 -41 -21 -77 -25 -80 -3 -3 -16 -38 -28 -77 -13 -40 -27 -75 -32 -78 -5 -4 -9 -13 -9 -22 0 -9 -6 -24 -13 -32 -7 -9 -21 -42 -31 -73 -9 -32 -20 -58 -24 -58 -4 0 -14 -21 -21 -48 -8 -26 -19 -54 -26 -62 -7 -8 -19 -33 -26 -55 -8 -22 -19 -44 -25 -50 -6 -5 -17 -29 -24 -52 -7 -24 -17 -43 -21 -43 -4 0 -14 -19 -21 -42 -8 -23 -20 -44 -26 -46 -9 -3 -12 453 -12 1978 0 1090 4 1979 8 1976 9 -5 7 82 -2 91 -9 9 -7 1233 2 1233 4 0 16 -22 26 -50z m-9468 -512 c-3 -17 -3 -41 0 -54 7 -26 50 -54 84 -54 11 0 20 -4 20 -10 0 -5 14 -10 31 -10 26 0 29 -3 24 -20 -4 -11 -1 -27 7 -35 7 -8 18 -21 25 -29 7 -8 50 -19 100 -27 48 -7 91 -17 95 -23 4 -6 56 -11 125 -12 65 0 148 -4 185 -9 68 -7 198 9 198 25 0 9 43 17 134 26 54 6 187 -10 211 -24 15 -10 137 -41 162 -41 12 -1 23 -5 25 -9 2 -4 57 -20 123 -35 113 -26 133 -27 360 -26 132 0 294 5 360 10 66 5 138 9 160 8 52 -2 69 -2 129 6 30 3 54 1 62 -6 8 -7 17 -9 20 -6 3 2 27 -1 54 -8 27 -7 86 -16 132 -20 46 -4 86 -12 89 -17 4 -7 120 -13 299 -16 l292 -5 28 -27 c15 -15 36 -45 46 -66 10 -21 23 -43 30 -49 6 -5 17 -31 25 -57 7 -27 16 -48 20 -48 4 0 10 -17 13 -37 19 -112 30 -162 36 -158 8 5 20 -54 20 -98 0 -15 7 -30 15 -33 8 -4 15 -17 15 -29 0 -28 28 -142 41 -164 4 -9 16 -51 25 -93 9 -43 19 -78 23 -78 4 0 13 -16 21 -35 8 -19 17 -35 21 -35 4 0 10 -8 13 -18 4 -10 15 -28 27 -40 18 -20 18 -24 5 -37 -8 -8 -20 -31 -26 -50 -6 -19 -15 -35 -19 -35 -10 0 -31 -69 -31 -99 0 -13 -7 -30 -16 -39 -13 -13 -15 -31 -12 -95 3 -43 9 -82 15 -85 16 -11 23 -91 9 -105 -7 -6 -21 -35 -31 -62 -11 -28 -22 -52 -26 -55 -10 -7 -39 -90 -39 -112 0 -9 -5 -18 -10 -20 -6 -2 -15 -35 -21 -73 -5 -39 -14 -71 -19 -73 -6 -2 -10 -16 -10 -31 0 -31 -27 -91 -40 -91 -5 0 -17 -17 -27 -37 -9 -21 -20 -40 -24 -43 -5 -3 -17 -26 -28 -50 -11 -25 -21 -40 -21 -35 -1 16 -29 -39 -30 -57 0 -10 -4 -18 -9 -18 -5 0 -17 -22 -27 -50 -10 -27 -21 -50 -25 -50 -6 0 -31 -80 -33 -108 -1 -7 -6 -16 -11 -20 -6 -4 -17 -27 -25 -52 -8 -25 -17 -47 -20 -50 -3 -3 -15 -34 -25 -70 -10 -36 -22 -67 -25 -70 -3 -3 -15 -36 -25 -75 -10 -38 -21 -72 -25 -75 -10 -7 -40 -113 -40 -140 0 -11 -4 -19 -9 -15 -6 3 -13 -11 -16 -32 -11 -69 -16 -85 -23 -79 -8 9 -27 -87 -37 -182 -4 -39 -11 -75 -16 -78 -5 -3 -9 -27 -9 -55 0 -35 -5 -54 -19 -68 -11 -11 -16 -22 -13 -26 4 -4 1 -5 -6 -3 -8 2 -19 -6 -25 -17 -7 -11 -20 -26 -29 -33 -10 -7 -18 -20 -18 -28 0 -8 -7 -17 -15 -20 -8 -4 -23 -22 -32 -42 -10 -20 -25 -44 -35 -54 -10 -10 -18 -24 -18 -31 0 -7 -9 -18 -20 -25 -11 -7 -20 -19 -20 -27 0 -8 -6 -18 -12 -22 -17 -10 -38 -49 -38 -67 0 -8 -6 -21 -13 -28 -7 -7 -21 -30 -30 -50 -10 -21 -22 -38 -28 -38 -5 0 -14 -11 -21 -25 -6 -13 -15 -22 -19 -19 -5 3 -9 0 -9 -6 0 -6 -35 -47 -77 -90 -84 -85 -136 -144 -142 -163 -2 -7 -12 -18 -23 -25 -10 -7 -18 -19 -18 -27 0 -8 -9 -19 -20 -25 -11 -6 -20 -17 -20 -25 0 -8 -6 -18 -13 -22 -7 -4 -21 -25 -32 -45 -11 -21 -23 -38 -27 -38 -5 0 -8 -9 -8 -19 0 -11 -5 -23 -10 -26 -6 -3 -10 -15 -10 -26 0 -11 -6 -22 -13 -25 -8 -3 -20 -27 -27 -54 -8 -28 -17 -50 -21 -50 -4 0 -15 -30 -25 -67 -9 -38 -21 -73 -26 -79 -4 -6 -15 -46 -24 -90 -9 -43 -20 -81 -24 -84 -5 -3 -16 -48 -25 -100 -9 -52 -21 -97 -26 -101 -5 -3 -15 -43 -21 -90 -7 -46 -15 -86 -19 -89 -4 -3 -12 -49 -18 -102 -12 -103 -18 -128 -32 -128 -5 0 -16 -18 -25 -40 -9 -22 -20 -40 -24 -40 -4 0 -13 -15 -21 -32 -7 -18 -15 -35 -18 -38 -12 -11 -29 -47 -36 -78 -3 -18 -11 -32 -16 -32 -5 0 -9 -6 -9 -12 -1 -7 -9 -23 -20 -36 -15 -18 -34 -25 -96 -31 -52 -6 -80 -14 -86 -25 -5 -8 -16 -22 -24 -31 -9 -8 -18 -33 -21 -55 -5 -36 -7 -39 -27 -28 -11 6 -23 14 -26 17 -8 10 -44 31 -62 37 -10 4 -18 10 -18 15 0 5 -14 16 -32 25 -18 9 -37 22 -44 28 -23 22 -53 45 -81 63 -15 9 -32 23 -36 30 -4 7 -14 13 -22 13 -8 0 -20 8 -27 18 -7 10 -20 22 -28 26 -41 20 -64 36 -50 36 8 0 2 7 -14 15 -16 9 -36 25 -43 35 -8 11 -18 20 -23 20 -10 0 -58 43 -182 162 -44 43 -89 80 -99 83 -11 4 -19 10 -19 14 0 10 -48 65 -140 160 -117 121 -190 202 -190 211 0 5 -11 17 -25 28 -14 11 -25 24 -25 29 0 5 -13 23 -30 39 -16 16 -30 33 -30 39 0 9 -8 18 -67 79 -13 13 -23 28 -23 34 0 6 -8 17 -18 24 -10 7 -26 30 -36 51 -9 20 -21 35 -25 32 -5 -2 -14 9 -21 25 -7 17 -16 30 -21 30 -4 0 -16 17 -25 38 -10 20 -24 41 -31 45 -7 4 -13 14 -13 21 0 7 -9 21 -19 33 -10 11 -26 34 -35 51 -15 28 -16 259 -16 2577 0 1850 3 2544 11 2539 6 -4 9 -19 5 -36z m9221 -5093 c-7 -5 -21 -27 -30 -47 -10 -21 -21 -38 -25 -38 -4 0 -16 -17 -27 -37 -22 -42 -41 -68 -67 -92 -10 -8 -18 -21 -18 -28 0 -7 -9 -22 -19 -32 -11 -11 -28 -32 -38 -48 -10 -15 -26 -34 -35 -41 -10 -7 -18 -19 -18 -27 0 -8 -9 -19 -20 -25 -11 -6 -20 -17 -20 -25 0 -8 -9 -19 -19 -25 -11 -5 -23 -19 -26 -30 -3 -11 -13 -20 -21 -20 -8 0 -14 -6 -14 -13 0 -7 -19 -31 -43 -53 -24 -22 -46 -48 -50 -57 -3 -9 -11 -17 -17 -17 -5 0 -10 -4 -10 -9 0 -4 -31 -40 -69 -79 -38 -39 -67 -73 -64 -75 2 -3 -5 -8 -16 -12 -11 -3 -23 -15 -26 -26 -4 -10 -11 -19 -17 -19 -5 0 -41 -31 -79 -69 -38 -38 -69 -66 -69 -61 0 6 -78 -64 -160 -145 -14 -14 -31 -25 -38 -25 -7 0 -12 -6 -12 -13 0 -7 -16 -21 -35 -31 -19 -11 -35 -22 -35 -26 0 -4 -13 -13 -30 -20 -16 -7 -28 -16 -25 -20 3 -4 -10 -15 -28 -23 -17 -9 -38 -25 -45 -36 -7 -12 -18 -21 -25 -21 -7 0 -20 -8 -28 -17 -9 -10 -29 -26 -45 -35 -55 -33 -69 -43 -82 -61 -7 -9 -17 -15 -22 -12 -4 3 -13 -2 -20 -10 -19 -23 -40 -18 -40 10 0 16 -9 29 -27 39 -16 8 -22 15 -15 16 11 0 11 2 0 14 -7 8 -21 23 -30 35 -15 18 -29 21 -92 21 -53 0 -79 -4 -90 -15 -8 -8 -18 -15 -23 -15 -5 0 -15 -6 -22 -12 -6 -7 -17 -13 -24 -13 -7 -1 -11 -6 -10 -11 3 -14 -13 -16 -155 -14 -136 2 -147 6 -189 82 -10 18 -26 39 -35 46 -10 7 -18 20 -18 28 0 8 -4 14 -9 14 -5 0 -17 20 -28 45 -10 25 -21 45 -24 45 -4 0 -15 33 -25 72 -9 40 -23 78 -30 85 -7 7 -18 39 -24 70 -7 31 -18 62 -25 70 -7 7 -16 31 -20 53 -4 22 -10 40 -14 40 -6 0 -22 48 -37 113 -3 15 -9 27 -13 27 -4 0 -15 31 -25 70 -10 38 -21 70 -25 70 -7 0 -31 72 -31 95 0 8 -4 15 -10 15 -5 0 -10 5 -10 12 0 24 -35 128 -43 128 -4 0 -5 5 -2 10 3 6 2 10 -3 10 -6 0 -15 14 -21 30 -5 17 -14 30 -18 30 -5 0 -17 17 -28 37 -11 21 -27 45 -35 55 -25 28 -36 42 -56 73 -10 17 -27 39 -36 49 -10 11 -18 23 -18 26 0 4 -11 20 -25 36 -14 16 -25 34 -25 39 0 6 -9 16 -19 22 -11 7 -22 26 -26 43 -4 16 -10 30 -15 30 -14 0 -21 33 -31 150 -6 63 -14 119 -18 125 -5 5 -14 43 -21 83 -7 44 -18 76 -26 79 -8 3 -14 13 -14 23 0 11 -4 22 -10 25 -5 3 -10 15 -10 26 0 11 -4 18 -8 15 -5 -3 -16 13 -26 34 -10 22 -21 40 -26 40 -4 0 -15 15 -24 34 -11 24 -16 63 -16 136 0 55 -4 99 -9 96 -5 -3 -14 37 -21 89 -7 52 -16 95 -19 95 -4 0 -15 45 -25 100 -10 55 -22 100 -26 100 -4 0 -10 17 -13 38 -10 71 -27 137 -37 140 -6 2 -10 11 -10 20 0 28 -24 122 -31 122 -4 0 -15 23 -24 50 -9 28 -20 50 -24 50 -4 0 -15 23 -25 50 -10 28 -22 50 -26 50 -5 0 -16 18 -26 40 -10 22 -22 40 -26 40 -5 0 -14 13 -19 30 -6 16 -15 27 -20 24 -5 -3 -9 4 -9 14 0 11 -7 25 -15 32 -8 7 -15 18 -15 25 0 7 -6 15 -13 18 -7 3 -19 25 -26 48 -6 24 -16 53 -21 64 -5 11 -13 91 -18 179 -5 87 -13 161 -18 165 -9 6 -28 72 -40 136 -3 16 -9 32 -14 35 -4 3 -16 41 -25 85 -9 44 -20 82 -24 85 -4 3 -13 27 -21 53 -11 40 -11 55 1 89 11 34 10 66 -4 211 -9 95 -21 173 -27 175 -14 5 -13 41 3 56 7 8 19 50 26 95 7 44 17 81 20 81 4 0 15 52 25 115 10 63 22 113 26 110 4 -3 11 17 14 43 12 83 30 162 37 162 3 0 12 27 18 60 7 33 16 60 20 60 4 0 16 30 26 68 10 37 21 69 24 72 10 9 41 80 41 95 0 8 5 15 10 15 6 0 10 5 10 11 0 6 19 30 41 53 l42 41 301 3 c165 1 310 6 321 11 44 20 65 23 190 28 157 6 355 -10 387 -31 25 -16 231 -36 372 -36 99 0 419 30 426 40 3 5 41 13 85 20 44 7 123 20 175 30 52 10 120 22 150 25 30 4 57 11 58 16 5 14 136 11 151 -3 16 -17 233 -16 239 0 5 15 92 16 92 2 0 -5 20 -10 45 -10 25 0 45 5 45 10 0 6 17 10 39 10 21 0 63 5 92 10 30 6 66 13 82 15 43 8 77 43 77 81 0 33 0 33 59 40 32 3 64 10 72 14 7 5 14 31 15 61 2 30 8 55 16 60 19 12 25 -5061 5 -5076z m-4703 1003 c18 -86 6 -1085 -12 -1097 -5 -3 -12 -19 -15 -36 -19 -109 -30 -155 -37 -155 -4 0 -10 -21 -13 -47 -16 -127 -26 -186 -35 -192 -5 -3 -15 -58 -22 -122 -11 -95 -11 -134 0 -215 7 -54 19 -104 25 -111 7 -6 15 -30 19 -52 3 -22 14 -48 25 -58 10 -10 21 -30 25 -45 3 -15 15 -35 25 -45 17 -16 20 -36 23 -177 2 -116 6 -160 16 -164 6 -2 12 -18 12 -35 1 -39 22 -119 36 -138 6 -8 19 -40 29 -71 11 -32 22 -58 26 -58 4 0 10 -14 14 -30 4 -17 14 -38 23 -47 15 -14 17 -40 15 -187 -1 -111 -5 -172 -12 -174 -6 -2 -11 -15 -11 -29 0 -20 -4 -24 -17 -18 -10 4 -30 11 -45 17 -22 8 -31 22 -45 64 -9 30 -20 54 -24 54 -15 0 -29 65 -29 131 0 74 4 67 -84 163 -34 36 -47 60 -52 92 -3 24 -10 44 -14 44 -9 0 -13 36 -30 295 -11 166 -10 314 6 551 6 90 -10 264 -25 274 -9 6 -18 40 -33 128 -5 34 -14 62 -19 62 -15 0 -11 180 4 195 8 7 20 41 27 74 7 34 16 61 21 61 4 0 11 17 14 38 8 46 25 93 41 109 6 7 15 29 19 50 4 21 11 41 16 44 5 3 11 46 13 95 4 112 26 255 37 248 5 -3 9 15 9 40 0 25 -4 46 -10 46 -5 0 -10 9 -10 20 0 11 5 20 10 20 6 0 10 54 10 141 0 78 4 158 10 178 5 20 12 48 15 64 7 33 23 36 29 5z m-761 -158 c19 -98 28 -134 36 -139 4 -4 11 -24 14 -46 3 -22 11 -69 17 -105 8 -47 8 -96 0 -185 -6 -66 -14 -154 -17 -195 -3 -41 -10 -78 -15 -81 -5 -3 -13 -46 -18 -95 -12 -116 -20 -155 -36 -171 -7 -7 -16 -33 -20 -58 -3 -25 -10 -45 -14 -45 -4 0 -13 -28 -19 -62 -7 -35 -18 -76 -26 -93 -35 -80 -46 -333 -20 -470 7 -38 14 -63 15 -55 2 8 9 -19 17 -60 24 -127 26 -134 39 -148 12 -11 20 -57 15 -85 -1 -4 6 -10 14 -13 8 -4 15 -14 15 -23 0 -26 31 -111 40 -111 4 0 13 -21 20 -47 7 -27 18 -52 24 -58 7 -5 18 -29 25 -52 8 -24 18 -43 22 -43 4 0 15 -22 24 -50 9 -27 20 -50 24 -50 4 0 15 -23 25 -50 10 -28 21 -49 24 -46 7 8 42 -93 42 -122 0 -13 4 -20 10 -17 6 4 10 -36 10 -114 0 -110 -2 -120 -19 -126 -11 -3 -23 -15 -26 -26 -4 -10 -11 -19 -16 -19 -12 0 -12 -67 1 -75 6 -3 10 -18 10 -32 l0 -25 -325 3 c-231 3 -328 7 -333 16 -7 11 -88 31 -166 41 -22 2 -46 11 -54 18 -7 8 -27 14 -44 14 -16 0 -42 6 -56 14 -15 8 -58 22 -97 31 -38 9 -74 20 -80 24 -5 5 -41 16 -80 26 -38 11 -72 22 -75 26 -6 8 -96 39 -115 39 -7 0 -15 5 -17 11 -2 5 -10 12 -18 13 -62 14 -80 20 -80 27 0 5 -9 9 -19 9 -11 0 -22 4 -25 9 -4 5 -24 12 -46 16 -22 4 -40 11 -40 15 0 5 -19 15 -42 21 -24 7 -47 17 -53 23 -5 7 -29 18 -52 25 -42 14 -58 31 -28 31 30 0 62 30 75 70 7 22 17 40 22 40 4 0 8 23 8 50 0 28 -4 50 -10 50 -5 0 -10 9 -10 20 0 11 5 20 10 20 6 0 15 10 21 23 5 12 17 35 25 50 9 15 21 58 29 95 7 37 14 63 15 57 1 -5 10 31 21 80 11 50 23 91 29 93 5 2 15 29 21 60 7 31 18 62 25 67 6 6 18 34 25 63 7 28 16 52 20 52 4 0 11 10 15 23 5 12 9 24 10 27 1 3 5 15 9 27 4 12 13 24 20 27 7 2 18 21 25 40 6 20 15 36 20 36 4 0 13 14 20 30 7 17 16 30 20 30 5 0 13 14 19 30 5 17 17 33 26 36 8 3 15 11 15 18 0 6 16 26 35 45 19 18 35 40 35 48 0 9 3 13 6 10 8 -8 44 36 44 53 0 6 4 9 9 6 5 -3 16 10 25 29 9 19 21 35 25 35 5 0 16 17 24 38 8 21 22 44 31 51 8 7 18 25 21 41 3 16 13 34 21 41 8 6 14 20 14 30 0 10 5 21 10 24 6 3 10 17 10 30 0 12 7 25 15 29 8 3 15 15 15 26 0 28 23 100 32 100 4 0 13 20 19 45 6 25 15 45 19 45 4 0 16 22 26 49 10 28 21 48 25 46 3 -3 14 15 23 38 9 25 28 50 45 60 43 25 171 158 164 170 -3 6 -1 7 5 3 6 -3 16 7 24 24 7 16 16 30 20 30 4 0 15 14 24 32 9 17 25 40 35 52 11 11 22 31 25 43 4 13 10 23 15 23 5 0 14 11 19 25 5 14 14 25 19 25 6 0 18 17 28 37 9 21 25 45 35 55 10 10 18 25 18 33 0 7 6 18 13 22 6 4 19 22 27 38 8 17 21 37 30 46 14 15 16 15 31 0 9 -9 19 -32 22 -51z m1612 -77 c10 -27 24 -54 31 -61 7 -6 18 -46 25 -87 7 -40 16 -72 20 -70 4 3 10 -20 14 -50 3 -30 11 -57 16 -60 5 -4 9 -13 9 -21 0 -8 8 -23 18 -33 9 -11 22 -26 28 -33 6 -7 23 -22 37 -33 16 -11 27 -29 27 -43 0 -12 4 -30 9 -40 6 -9 13 -34 16 -54 3 -21 9 -38 13 -38 5 0 14 -28 21 -62 7 -35 17 -68 22 -74 10 -12 27 -85 36 -149 3 -22 9 -43 14 -46 5 -3 12 -36 16 -73 3 -36 10 -69 14 -72 5 -3 9 -16 9 -29 0 -13 4 -26 9 -29 5 -3 12 -18 15 -33 10 -38 30 -83 37 -83 4 0 12 -13 19 -29 6 -16 18 -32 27 -35 8 -3 12 -10 9 -14 -7 -11 99 -119 125 -127 10 -4 19 -10 19 -14 0 -5 13 -14 29 -21 27 -11 30 -17 36 -81 4 -38 10 -69 14 -69 4 0 13 -29 20 -65 7 -36 17 -65 22 -65 4 0 16 -16 25 -35 9 -19 20 -35 25 -35 5 0 9 -6 9 -14 0 -8 14 -28 30 -44 17 -17 30 -34 30 -38 0 -9 41 -44 52 -44 4 0 8 -8 8 -17 0 -9 3 -14 6 -11 7 8 172 -155 210 -207 16 -22 31 -42 35 -45 19 -17 39 -58 39 -80 0 -14 4 -30 9 -36 5 -5 14 -48 20 -96 5 -48 14 -95 19 -105 5 -10 17 -43 27 -74 15 -48 22 -57 51 -68 19 -7 34 -17 34 -22 0 -5 12 -9 26 -9 33 0 22 -17 -16 -25 -17 -4 -30 -11 -30 -15 0 -5 -18 -15 -40 -21 -22 -7 -40 -15 -40 -19 0 -4 -25 -13 -56 -20 -31 -8 -62 -20 -69 -27 -8 -7 -20 -13 -27 -14 -20 -1 -124 -37 -113 -39 10 -2 -77 -27 -127 -37 -16 -3 -28 -9 -28 -13 0 -5 -26 -14 -57 -20 -32 -7 -60 -15 -63 -19 -3 -4 -43 -15 -90 -25 -74 -15 -98 -16 -180 -6 -52 6 -120 14 -150 17 -30 3 -57 9 -60 14 -3 5 -33 11 -65 15 -33 3 -64 11 -70 18 -5 6 -28 20 -50 31 -22 11 -42 23 -45 26 -3 3 -23 14 -45 25 -22 10 -45 25 -51 33 -6 8 -18 15 -25 16 -14 2 -80 43 -106 65 -7 6 -24 15 -38 20 -15 6 -25 17 -25 29 0 11 -6 26 -14 33 -15 15 -21 48 -37 183 -6 50 -15 92 -20 93 -5 2 -9 273 -9 682 0 551 2 679 13 683 7 3 19 30 27 61 7 30 17 53 21 50 4 -2 10 10 13 28 3 18 8 49 11 68 3 19 8 64 12 100 3 36 10 71 15 77 6 7 13 81 16 164 3 96 9 155 17 162 6 7 15 28 18 47 18 95 25 123 34 129 4 3 16 44 26 91 10 47 22 87 27 88 6 2 10 12 10 22 0 63 32 65 55 3z m-918 -225 c-3 -8 -6 -5 -6 6 -1 11 2 17 5 13 3 -3 4 -12 1 -19z m-4428 -1018 c4 -3 15 -18 24 -33 20 -31 43 -61 70 -89 9 -10 17 -22 17 -28 0 -5 11 -17 25 -26 14 -9 25 -21 25 -28 0 -6 16 -26 35 -45 19 -19 35 -37 35 -42 0 -4 19 -27 43 -51 73 -76 137 -150 137 -159 0 -5 4 -9 9 -9 12 0 81 -67 81 -80 0 -6 11 -15 25 -20 14 -5 25 -16 25 -24 0 -8 9 -18 20 -21 11 -3 20 -13 20 -21 0 -8 4 -14 10 -14 5 0 43 -34 84 -75 41 -41 79 -75 85 -75 5 0 13 -9 16 -20 3 -11 12 -20 18 -20 7 0 32 -20 55 -45 23 -25 46 -45 50 -45 8 0 59 -42 98 -80 12 -11 26 -20 32 -20 7 0 17 -9 24 -20 7 -11 18 -20 25 -20 6 0 18 -8 25 -18 7 -10 30 -26 51 -35 20 -10 37 -22 37 -28 0 -5 11 -14 25 -19 14 -5 28 -16 31 -25 3 -8 10 -13 14 -10 4 3 13 -2 20 -10 7 -8 19 -15 27 -15 7 0 16 -6 19 -14 3 -8 19 -20 35 -26 16 -7 29 -15 29 -19 0 -3 18 -14 40 -25 21 -10 41 -25 44 -32 3 -8 12 -14 20 -14 19 0 67 -26 60 -32 -3 -4 10 -11 29 -17 20 -7 37 -18 40 -25 3 -6 23 -18 45 -25 23 -8 43 -19 45 -25 3 -7 23 -18 46 -26 23 -7 41 -17 41 -21 0 -4 16 -13 35 -19 19 -6 35 -15 35 -20 0 -4 25 -16 55 -25 30 -10 55 -21 55 -25 0 -5 23 -16 50 -26 28 -10 50 -21 50 -25 0 -4 25 -15 55 -24 30 -8 55 -19 55 -24 0 -5 20 -14 45 -20 25 -6 45 -15 45 -20 0 -5 29 -17 65 -26 36 -10 70 -24 76 -31 10 -12 -188 -14 -1230 -14 l-1241 0 0 968 c1 894 2 965 17 937 9 -16 19 -32 22 -35z m9213 -1493 l-2 -377 -1230 0 c-1033 0 -1228 3 -1224 14 3 8 29 20 57 29 29 8 51 19 50 25 -1 6 16 13 37 17 22 4 46 12 53 19 6 7 33 21 60 31 26 10 47 21 47 24 0 4 25 15 55 26 30 10 55 22 55 26 0 4 23 15 50 24 28 9 50 20 50 25 0 4 15 13 33 21 17 7 34 16 37 20 5 7 54 33 130 70 25 12 49 28 53 35 4 8 14 14 22 14 8 0 18 6 22 13 4 7 25 21 46 31 20 9 37 21 37 25 0 5 20 16 45 25 25 10 45 21 45 26 0 4 14 13 30 20 17 7 30 16 30 21 0 5 17 17 38 27 20 9 43 25 50 35 7 9 19 17 27 17 8 0 18 6 22 14 4 7 23 21 41 30 18 9 43 26 55 37 12 11 29 26 38 34 9 8 21 15 27 15 6 0 19 10 29 23 10 12 31 29 47 37 16 8 46 31 67 50 20 19 50 44 64 55 36 26 77 61 144 124 30 28 59 51 63 51 4 0 8 7 8 15 0 8 7 15 15 15 19 0 136 121 128 133 -3 6 -2 7 4 4 9 -6 203 176 203 189 0 11 28 33 34 27 3 -4 6 0 6 8 0 13 28 47 120 147 22 24 40 46 40 50 0 3 7 12 15 21 54 60 75 85 75 91 0 3 10 17 23 30 l22 25 5 -565 c3 -311 4 -735 2 -943z m-2037 143 c3 -5 -1 -10 -9 -10 -8 0 -21 -6 -28 -12 -22 -20 -56 -38 -73 -38 -9 0 -18 -7 -21 -15 -6 -15 -44 -22 -44 -8 0 4 10 17 23 28 13 11 26 28 30 37 4 11 20 18 49 21 24 2 48 4 55 5 6 1 15 -2 18 -8z"/>
</g>
</svg>